<svg xmlns="http://www.w3.org/2000/svg" width="1746.012" height="948.308" viewBox="0 0 1746.012 948.308">
  <g id="Group_1" data-name="Group 1" transform="translate(-117.61 -86.157)">
    <g id="Polygon_1" data-name="Polygon 1" transform="translate(674 209)" fill="none">
      <path d="M16.349,11.8a5,5,0,0,1,9.3,0l1.776,4.5A5,5,0,0,0,28.6,18.062l1.718,1.659A5,5,0,0,1,26,28.244l-4.152-.715a5,5,0,0,0-1.7,0L16,28.244a5,5,0,0,1-4.322-8.524L13.4,18.062A5,5,0,0,0,14.573,16.3Z" stroke="none"/>
      <path d="M 21 11.63029098510742 C 20.59071922302246 11.63029098510742 19.59011077880859 11.75368118286133 19.13941955566406 12.89664077758789 L 17.36366081237793 17.40002059936523 C 16.94133949279785 18.47105026245117 16.30732917785645 19.41965103149414 15.4792594909668 20.21949005126953 L 13.76168060302734 21.87849998474121 C 12.91691017150879 22.6944694519043 13.10263061523438 23.58805084228516 13.28852081298828 24.04808044433594 C 13.53779029846191 24.66493988037109 14.14064979553223 25.32408142089844 15.08510971069336 25.32408142089844 C 15.21519088745117 25.32408142089844 15.35161972045898 25.31193923950195 15.49061012268066 25.28800964355469 L 19.64221000671387 24.57299995422363 C 20.08938980102539 24.49599075317383 20.54622077941895 24.45693969726563 21 24.45693969726563 C 21.45376014709473 24.45693969726563 21.91057968139648 24.49599075317383 22.35778999328613 24.5730094909668 L 26.50938987731934 25.28800010681152 C 26.64838027954102 25.31193923950195 26.78480911254883 25.32408142089844 26.91489028930664 25.32408142089844 C 27.8591194152832 25.32408142089844 28.46194076538086 24.66485977172852 28.71123886108398 24.04793167114258 C 28.89714050292969 23.5878791809082 29.08290100097656 22.69428062438965 28.23830986022949 21.87849998474121 L 26.52075004577637 20.2194995880127 C 25.69267082214355 19.41965103149414 25.05866050720215 18.47105026245117 24.63635063171387 17.4000301361084 L 22.86058044433594 12.89664077758789 C 22.40988922119141 11.75368118286133 21.40928077697754 11.63029098510742 21 11.63029098510742 M 21 8.630294799804688 C 22.90960311889648 8.630294799804688 24.81920433044434 9.685581207275391 25.65143966674805 11.79615020751953 L 27.42720985412598 16.29953956604004 C 27.68935012817383 16.96434020996094 28.0909595489502 17.56522941589355 28.60496139526367 18.06170082092285 L 30.32252883911133 19.72071075439453 C 33.63448333740234 22.91973114013672 31.2121467590332 28.32408142089844 26.91489028930664 28.32408142089844 C 26.61823844909668 28.32408142089844 26.31348037719727 28.29843139648438 26.00022125244141 28.24448013305664 L 21.84861946105957 27.52947998046875 C 21.56781578063965 27.48112106323242 21.28390693664551 27.45693969726563 21 27.45693969726563 C 20.71609306335449 27.45693969726563 20.43218421936035 27.48112106323242 20.15138053894043 27.52947998046875 L 15.99978065490723 28.24448013305664 C 15.68681526184082 28.29837989807129 15.38149833679199 28.32408142089844 15.08510780334473 28.32408142089844 C 10.78732872009277 28.32408142089844 8.365299224853516 22.91994094848633 11.67746925354004 19.72071075439453 L 13.39504051208496 18.06170082092285 C 13.9090404510498 17.56522941589355 14.31064987182617 16.96434020996094 14.57279014587402 16.29953956604004 L 16.34856033325195 11.79615020751953 C 17.18079566955566 9.685581207275391 19.09039688110352 8.630294799804688 21 8.630294799804688 Z" stroke="none" fill="#050505"/>
    </g>
    <g id="Polygon_2" data-name="Polygon 2" transform="translate(1074 419)" fill="none">
      <path d="M8.176,23.543a3.875,3.875,0,0,1,7.649,0h0a3.875,3.875,0,0,0,.26.9l4.173,9.784A3.875,3.875,0,0,1,15.2,39.321l-1.705-.713a3.875,3.875,0,0,0-2.989,0L8.8,39.321a3.875,3.875,0,0,1-5.058-5.095l4.173-9.784a3.875,3.875,0,0,0,.26-.9Z" stroke="none"/>
      <path d="M 12 23.2897834777832 C 11.25605010986328 23.2897834777832 11.16627025604248 23.84249114990234 11.13675975799561 24.02416229248047 C 11.04778003692627 24.57187271118164 10.89227962493896 25.10839080810547 10.67459011077881 25.61881256103516 L 6.501579284667969 35.40307235717773 C 6.45564079284668 35.51079177856445 6.315830230712891 35.83859252929688 6.561220169067383 36.21002197265625 C 6.695999145507813 36.41403198242188 6.957059860229492 36.63202285766602 7.285560607910156 36.63202285766602 C 7.397609710693359 36.63202285766602 7.517990112304688 36.60545349121094 7.643350601196289 36.55303955078125 L 9.348400115966797 35.84024047851563 C 10.19272041320801 35.48726272583008 11.08483982086182 35.30828094482422 12 35.30828094482422 C 12.91516017913818 35.30828094482422 13.80727958679199 35.48726272583008 14.65155029296875 35.8402214050293 L 16.35664939880371 36.55303955078125 C 16.4837703704834 36.60619354248047 16.60081100463867 36.63202285766602 16.71443939208984 36.63202285766602 C 17.04281044006348 36.63202285766602 17.30385971069336 36.41398239135742 17.43867111206055 36.20993041992188 C 17.68410110473633 35.83842468261719 17.54434967041016 35.51074981689453 17.49842071533203 35.40307235717773 L 13.32540988922119 25.61881256103516 C 13.10770988464355 25.10839080810547 12.95221996307373 24.57186126708984 12.86324024200439 24.02412033081055 C 12.83372974395752 23.84249114990234 12.74394989013672 23.2897834777832 12 23.2897834777832 M 12 20.28978729248047 C 13.73605251312256 20.28978729248047 15.47210502624512 21.37422180175781 15.82441997528076 23.5430908203125 L 15.82443046569824 23.5431022644043 C 15.87462043762207 23.85211181640625 15.96208953857422 24.15391159057617 16.08490943908691 24.4418830871582 L 20.25791931152344 34.22614288330078 C 21.40486717224121 36.91533660888672 19.31552505493164 39.63202285766602 16.71444320678711 39.63202285766602 C 16.22157096862793 39.63202285766602 15.71065330505371 39.53458404541016 15.19954013824463 39.3209114074707 L 13.49444007873535 38.60809326171875 C 13.0163402557373 38.40821838378906 12.50817012786865 38.30828094482422 12 38.30828094482422 C 11.49182987213135 38.30828094482422 10.9836597442627 38.40821838378906 10.50555992126465 38.60809326171875 L 8.800459861755371 39.3209114074707 C 8.289542198181152 39.53450393676758 7.778253555297852 39.63202285766602 7.285556793212891 39.63202285766602 C 4.684211730957031 39.63202285766602 2.595048904418945 36.91552734375 3.742080688476563 34.22614288330078 L 7.915090560913086 24.4418830871582 C 8.037910461425781 24.15391159057617 8.12537956237793 23.85211181640625 8.175580024719238 23.5431022644043 L 8.175580024719238 23.5430908203125 C 8.527894973754883 21.37422180175781 10.26394748687744 20.28978729248047 12 20.28978729248047 Z" stroke="none" fill="#050505"/>
    </g>
    <g id="Polygon_3" data-name="Polygon 3" transform="matrix(-0.914, 0.407, -0.407, -0.914, 1832.154, 221.364)" fill="none">
      <path d="M23.229,15.222a5,5,0,0,1,9.542,0L36.809,28.1a5,5,0,0,0,.91,1.682l9.138,11.1a5,5,0,0,1-4.92,8.064l-12.878-2.79a5,5,0,0,0-2.118,0l-12.878,2.79a5,5,0,0,1-4.92-8.064l9.138-11.1a5,5,0,0,0,.91-1.682Z" stroke="none"/>
      <path d="M 28 14.71761322021484 C 27.55829048156738 14.71761322021484 26.48810958862305 14.85420608520508 26.09155082702637 16.11944580078125 L 22.05401992797852 29.00108528137207 C 21.74468994140625 29.98796463012695 21.254638671875 30.89325523376465 20.59748077392578 31.69182395935059 L 11.45986175537109 42.79555511474609 C 10.75838088989258 43.64796447753906 10.98667907714844 44.48062515258789 11.18521118164063 44.90110397338867 C 11.45318984985352 45.46868515014648 12.05601119995117 46.0751838684082 12.94422912597656 46.0751838684082 C 13.09925079345703 46.0751838684082 13.26190948486328 46.05697631835938 13.42768096923828 46.02105331420898 L 26.30595970153809 43.23076629638672 C 26.8615608215332 43.11038208007813 27.43152046203613 43.04934692382813 28 43.04934692382813 C 28.56846046447754 43.04934692382813 29.1384105682373 43.11038208007813 29.69403076171875 43.23076629638672 L 42.57233047485352 46.02105331420898 C 42.73809051513672 46.05697631835938 42.90074920654297 46.0751838684082 43.05577087402344 46.0751838684082 C 43.94377899169922 46.0751838684082 44.54656219482422 45.46861267089844 44.81457138061523 44.90096282958984 C 45.01311111450195 44.48045349121094 45.24145889282227 43.64777374267578 44.54013824462891 42.79555511474609 L 35.40254211425781 31.69183349609375 C 34.7453498840332 30.89325523376465 34.25528717041016 29.98793411254883 33.94596862792969 29.00105476379395 L 29.90844917297363 16.11944580078125 C 29.51189041137695 14.85421371459961 28.44170951843262 14.71761322021484 28 14.71761322021484 M 27.99999618530273 11.71761322021484 C 30.01941299438477 11.71761322021484 32.0388298034668 12.88580322265625 32.7711296081543 15.22218322753906 L 36.80864715576172 28.10379409790039 C 37.00106811523438 28.71771430969238 37.3101692199707 29.28873443603516 37.71900177001953 29.78552436828613 L 46.85660934448242 40.88925170898438 C 49.62012481689453 44.24739074707031 47.0723991394043 49.0751838684082 43.05577087402344 49.0751838684082 C 42.69363403320313 49.0751838684082 42.32027435302734 49.03605651855469 41.93706130981445 48.95302581787109 L 29.05876922607422 46.16273498535156 C 28.70989418029785 46.08714294433594 28.35494804382324 46.04935073852539 28 46.04935073852539 C 27.64505195617676 46.04935073852539 27.29010581970215 46.08714294433594 26.94123077392578 46.16273498535156 L 14.06293869018555 48.95302581787109 C 13.68001174926758 49.03599548339844 13.30611801147461 49.0751838684082 12.94422912597656 49.0751838684082 C 8.927139282226563 49.0751838684082 6.379692077636719 44.24761199951172 9.143390655517578 40.88925170898438 L 18.28100967407227 29.78552436828613 C 18.6898307800293 29.28873443603516 18.99892044067383 28.71771430969238 19.19134902954102 28.10379409790039 L 23.2288703918457 15.22218322753906 C 23.96116638183594 12.88580322265625 25.9805793762207 11.71761322021484 27.99999618530273 11.71761322021484 Z" stroke="none" fill="#050505"/>
    </g>
    <g id="Polygon_4" data-name="Polygon 4" transform="translate(1767.885 745.689) rotate(-68)" fill="none">
      <path d="M38.388,11.009a5,5,0,0,1,9.223,0L52.4,22.438a5,5,0,0,0,2.329,2.517l2.536,1.3a5,5,0,0,1-3.113,9.379L43.831,33.9a5,5,0,0,0-1.661,0L31.848,35.635a5,5,0,0,1-3.113-9.379l2.536-1.3A5,5,0,0,0,33.6,22.438Z" stroke="none"/>
      <path d="M 42.99999237060547 10.94049072265625 C 42.59993362426758 10.94049072265625 41.61933135986328 11.0600700378418 41.15531158447266 12.1677303314209 L 36.36724090576172 23.59737014770508 C 35.63961410522461 25.33430099487305 34.31614303588867 26.76432991027832 32.64063262939453 27.6240406036377 L 30.10474395751953 28.92520141601563 C 28.88465118408203 29.55121994018555 28.92937088012695 30.58391952514648 29.06462097167969 31.14377975463867 C 29.12803268432617 31.40625 29.51498413085938 32.71553039550781 30.90988159179688 32.71553039550781 C 31.04953384399414 32.71553039550781 31.19759368896484 32.70252227783203 31.3499641418457 32.67684936523438 L 41.67111206054688 30.93825149536133 C 42.10893249511719 30.86450004577637 42.5560417175293 30.82710075378418 43.00000381469727 30.82710075378418 C 43.44395065307617 30.82710075378418 43.89105224609375 30.86450004577637 44.32888412475586 30.93825149536133 L 54.65006256103516 32.67684936523438 C 54.80238342285156 32.70251083374023 54.95043182373047 32.71552276611328 55.09009170532227 32.71552276611328 C 56.48463439941406 32.71552276611328 56.87158966064453 31.40608978271484 56.93500518798828 31.14360046386719 C 57.07025146484375 30.58373069763184 57.11502075195313 29.55105972290039 55.8952522277832 28.92520141601563 L 53.35934066772461 27.62403106689453 C 51.68384170532227 26.76432991027832 50.36038208007813 25.33430099487305 49.63276290893555 23.59737014770508 L 44.84467315673828 12.1677303314209 C 44.38065338134766 11.0600700378418 43.40005111694336 10.94049072265625 42.99999237060547 10.94049072265625 M 42.99999237060547 7.940494537353516 C 44.87741088867188 7.940494537353516 46.75483322143555 8.963191986083984 47.6116828918457 11.00857925415039 L 52.39977264404297 22.4382209777832 C 52.85522079467773 23.52543067932129 53.68014144897461 24.41677093505859 54.7288932800293 24.95489120483398 L 57.2647819519043 26.25604057312012 C 62.05695724487305 28.71489334106445 60.05492782592773 35.71552276611328 55.090087890625 35.71552276611328 C 54.78790283203125 35.71552276611328 54.47495651245117 35.68961715698242 54.15167999267578 35.63516235351563 L 43.83055114746094 33.89656829833984 C 43.55563735961914 33.85026168823242 43.27781677246094 33.82710647583008 43 33.82710647583008 C 42.7221794128418 33.82710647583008 42.44436264038086 33.85026168823242 42.16945266723633 33.89656829833984 L 31.84829330444336 35.63516998291016 C 31.52536010742188 35.68956756591797 31.21177291870117 35.71553421020508 30.90988540649414 35.71553421020508 C 25.94434356689453 35.71553421020508 23.94271850585938 28.71506118774414 28.73520278930664 26.25605010986328 L 31.27109146118164 24.95489120483398 C 32.31985092163086 24.41677093505859 33.14477157592773 23.52543067932129 33.60022354125977 22.4382209777832 L 38.38830184936523 11.00857925415039 C 39.24515151977539 8.963191986083984 41.12257385253906 7.940494537353516 42.99999237060547 7.940494537353516 Z" stroke="none" fill="#050505"/>
    </g>
    <g id="Polygon_5" data-name="Polygon 5" transform="translate(933.903 155.295) rotate(171)" fill="none">
      <path d="M43.533,19.779a3,3,0,0,1,5.934,0l3.346,22.305a3,3,0,0,0,1.305,2.053l18.19,12.1a3,3,0,0,1-2.681,5.319L47.519,53.568a3,3,0,0,0-2.039,0L23.373,61.555a3,3,0,0,1-2.681-5.319l18.19-12.1a3,3,0,0,0,1.305-2.053Z" stroke="none"/>
      <path d="M 46.4999885559082 20.22375869750977 L 46.5 20.22375869750977 L 43.15420150756836 42.52912902832031 C 42.9033088684082 44.20168685913086 41.9517707824707 45.69815826416016 40.5435791015625 46.63482666015625 L 22.35402679443359 58.73390960693359 L 44.46115112304688 50.746826171875 C 45.11682891845703 50.50991821289063 45.80279922485352 50.38978576660156 46.5 50.38978576660156 C 47.19718170166016 50.38978576660156 47.88314056396484 50.50991058349609 48.53876113891602 50.74679565429688 L 70.64589691162109 58.73387908935547 C 70.64589691162109 58.73387145996094 70.64590454101563 58.73386383056641 70.64598083496094 58.73390960693359 L 52.45643997192383 46.63484954833984 C 51.04824066162109 45.69817733764648 50.09669876098633 44.20169830322266 49.84579849243164 42.52911758422852 L 46.4999885559082 20.22375869750977 M 46.5 17.22375869750977 C 47.85565185546875 17.22375869750977 49.2113037109375 18.07541656494141 49.46680068969727 19.77873992919922 L 52.8126106262207 42.08409881591797 C 52.93830108642578 42.9220085144043 53.41244125366211 43.66769790649414 54.117919921875 44.13694763183594 L 72.30747985839844 56.23603057861328 C 74.92366027832031 57.97623443603516 73.41702270507813 61.75511932373047 70.71974945068359 61.75511932373047 C 70.37285614013672 61.75511932373047 70.00664520263672 61.69271850585938 69.6265869140625 61.5554084777832 L 47.51937866210938 53.56829833984375 C 47.19000625610352 53.44929504394531 46.84500122070313 53.38979339599609 46.5 53.38979339599609 C 46.15499877929688 53.38979339599609 45.80999374389648 53.44929504394531 45.48062133789063 53.56829833984375 L 23.3734130859375 61.5554084777832 C 22.99356079101563 61.69264221191406 22.62697601318359 61.75511932373047 22.28025054931641 61.75511932373047 C 19.58262634277344 61.75511932373047 18.07614898681641 57.97635650634766 20.69252014160156 56.23603057861328 L 38.882080078125 44.13694763183594 C 39.58755111694336 43.66769790649414 40.06169891357422 42.9220085144043 40.1873893737793 42.08409881591797 L 43.5331916809082 19.77873992919922 C 43.78868865966797 18.07541656494141 45.14434432983398 17.22375869750977 46.5 17.22375869750977 Z" stroke="none" fill="#050505"/>
    </g>
    <g id="Polygon_6" data-name="Polygon 6" transform="matrix(0.996, -0.087, 0.087, 0.996, 1217.588, 183.856)" fill="none">
      <path d="M25.892,47.893c.653-6.123,9.563-6.123,10.216,0h0a5.137,5.137,0,0,0,1.125,2.7l7.215,8.859a5.137,5.137,0,0,1-6.543,7.7l-4.345-2.5a5.137,5.137,0,0,0-5.12,0l-4.345,2.5a5.137,5.137,0,0,1-6.543-7.7l7.215-8.859a5.137,5.137,0,0,0,1.125-2.7Z" stroke="none"/>
      <path d="M 30.9999942779541 46.30088806152344 C 30.45793342590332 46.30088806152344 29.93642425537109 46.47286987304688 29.56917572021484 46.77273559570313 C 29.17050552368164 47.09825897216797 28.94338607788086 47.56885528564453 28.87485504150391 48.21141052246094 C 28.70722579956055 49.78313827514648 28.09098434448242 51.2617073059082 27.0927734375 52.48727035522461 L 19.87734603881836 61.34600830078125 C 19.30614471435547 62.04728698730469 19.19953536987305 62.78794860839844 19.56046295166016 63.54742050170898 C 19.87444305419922 64.20810699462891 20.59405517578125 64.874755859375 21.49393463134766 64.874755859375 C 21.85103607177734 64.874755859375 22.22300338745117 64.7650146484375 22.59952545166016 64.548583984375 L 26.94470596313477 62.05080032348633 C 28.17668533325195 61.34260940551758 29.57898330688477 60.96827697753906 31.00000381469727 60.96827697753906 C 32.42101287841797 60.96827697753906 33.82331466674805 61.34260940551758 35.05530548095703 62.05080032348633 L 39.40046691894531 64.54856872558594 C 39.77698516845703 64.76500701904297 40.14895629882813 64.87474822998047 40.50605392456055 64.87474822998047 C 41.40573501586914 64.87474822998047 42.12529373168945 64.20802307128906 42.43930435180664 63.54726028442383 C 42.80025482177734 62.78772735595703 42.6937141418457 62.047119140625 42.12265396118164 61.34598922729492 L 34.9072151184082 52.48724746704102 C 33.90900421142578 51.26168060302734 33.29277420043945 49.78311920166016 33.12514495849609 48.21142959594727 C 33.05660247802734 47.56885528564453 32.82949447631836 47.0982666015625 32.43081665039063 46.77273559570313 C 32.06356430053711 46.47286987304688 31.54205513000488 46.30088806152344 30.9999942779541 46.30088806152344 M 31 43.30088806152344 C 33.39083862304688 43.30088806152344 35.78167724609375 44.83167266845703 36.10822296142578 47.89324951171875 C 36.21379470825195 48.8830680847168 36.60466384887695 49.82087707519531 37.23329162597656 50.59268951416016 L 44.44871520996094 59.45140838623047 C 47.41012573242188 63.0872802734375 44.41319274902344 67.87474060058594 40.50605392456055 67.87474060058594 C 39.66433715820313 67.87474060058594 38.78118133544922 67.65291595458984 37.90535354614258 67.14945983886719 L 33.56020355224609 64.65170288085938 C 32.76761627197266 64.19609069824219 31.88381004333496 63.96828460693359 31.00000381469727 63.96828460693359 C 30.11619758605957 63.96828460693359 29.23238754272461 64.19609069824219 28.43979263305664 64.65170288085938 L 24.09462356567383 67.14947509765625 C 23.21910095214844 67.65276336669922 22.33538436889648 67.87476348876953 21.49393081665039 67.87476348876953 C 17.58636856079102 67.87476348876953 14.58964157104492 63.08757019042969 17.55127334594727 59.4514274597168 L 24.76670455932617 50.59268951416016 C 25.39534378051758 49.82087707519531 25.78620529174805 48.8830680847168 25.89177322387695 47.89324951171875 C 26.21831893920898 44.83167266845703 28.60915756225586 43.30088806152344 31 43.30088806152344 Z" stroke="none" fill="#050505"/>
    </g>
    <line id="Line_4" data-name="Line 4" y1="1" x2="31" transform="translate(1097.5 791.5)" fill="none" stroke="#050505" stroke-linecap="round" stroke-width="3"/>
    <path id="Path_1" data-name="Path 1" d="M1250.731,856.973s30.867-9.25,45.3,0,30.558,16.077,45.351,1.284" transform="matrix(0.921, 0.391, -0.391, 0.921, 172.008, -1076.054)" fill="none" stroke="#050505" stroke-linecap="round" stroke-width="3"/>
    <path id="Path_2" data-name="Path 2" d="M1250.731,865.246s14,11.565,20.543,0,13.858-20.1,20.567-1.605" transform="translate(-804 10.015)" fill="none" stroke="#050505" stroke-linecap="round" stroke-width="3"/>
    <path id="Path_3" data-name="Path 3" d="M1250.731,869.985s8.176-38.527,12,0,8.094,66.967,12.012,5.348" transform="matrix(0.574, -0.819, 0.819, 0.574, 36.927, 737.138)" fill="none" stroke="#050505" stroke-linecap="round" stroke-width="3"/>
    <path id="Path_4" data-name="Path 4" d="M1250.731,854.74s14.269-4.225,20.94,0,14.126,7.343,20.964.586" transform="translate(-495 -430.461)" fill="none" stroke="#050505" stroke-linecap="round" stroke-width="3"/>
    <g id="Polygon_7" data-name="Polygon 7" transform="translate(1610 426)" fill="none">
      <path d="M26.21,5.152a11.233,11.233,0,0,1,13.58,0l6.423,4.873a11.233,11.233,0,0,0,2.843,1.568l3.459,1.3A11.233,11.233,0,0,1,57.807,29.8h0a11.233,11.233,0,0,0-1.771,4.161L55.46,36.8a11.233,11.233,0,0,1-12.389,8.919l-8.692-1.075a11.233,11.233,0,0,0-2.757,0l-8.692,1.075A11.233,11.233,0,0,1,10.54,36.8l-.576-2.845A11.233,11.233,0,0,0,8.193,29.8h0a11.233,11.233,0,0,1,5.292-16.907l3.459-1.3a11.233,11.233,0,0,0,2.843-1.568Z" stroke="none"/>
      <path d="M 33 5.867393493652344 C 31.18790054321289 5.867393493652344 29.4670295715332 6.446346282958984 28.02342987060547 7.541656494140625 L 21.6002311706543 12.41513442993164 C 20.50143051147461 13.24882507324219 19.28953170776367 13.91727447509766 17.99821090698242 14.40190505981445 L 14.53905868530273 15.70015335083008 C 12.14717864990234 16.59783554077148 10.33769989013672 18.51103401184082 9.574581146240234 20.94917488098145 C 8.811458587646484 23.38731384277344 9.207271575927734 25.99074554443359 10.66053009033203 28.0919246673584 C 11.76441955566406 29.68797492980957 12.5194091796875 31.46163368225098 12.90454864501953 33.36362457275391 L 13.48067092895508 36.20881652832031 C 13.85860061645508 38.07525634765625 14.87966918945313 39.76364517211914 16.35578155517578 40.96295547485352 C 17.82102966308594 42.15344619750977 19.66188049316406 42.80907440185547 21.53919982910156 42.80907440185547 C 21.87805938720703 42.80907440185547 22.22175979614258 42.78781509399414 22.56074905395508 42.74589538574219 L 31.25305938720703 41.67090606689453 C 31.83044815063477 41.59950256347656 32.41820907592773 41.56329345703125 33 41.56329345703125 C 33.58179092407227 41.56329345703125 34.16954803466797 41.59950256347656 34.74694061279297 41.67090606689453 L 43.43926239013672 42.74589538574219 C 43.7782096862793 42.78781509399414 44.12190246582031 42.80907440185547 44.46079254150391 42.80907440185547 C 46.33792114257813 42.80907440185547 48.17871856689453 42.15339660644531 49.64408874511719 40.96281433105469 C 51.12031936645508 39.76341247558594 52.14142990112305 38.0750732421875 52.51931762695313 36.20881652832031 L 53.09543991088867 33.36361694335938 C 53.4805793762207 31.46164512634277 54.23556900024414 29.6880054473877 55.33946228027344 28.09191513061523 C 56.79272079467773 25.99074554443359 57.18852996826172 23.38731384277344 56.42541885375977 20.94917488098145 C 55.66230010986328 18.51102447509766 53.85282135009766 16.59783554077148 51.46094131469727 15.70015335083008 L 48.00177764892578 14.40191650390625 C 46.7104606628418 13.91727447509766 45.49856948852539 13.24882507324219 44.39977264404297 12.41513442993164 L 37.97657012939453 7.541656494140625 C 36.5329704284668 6.446346282958984 34.81209945678711 5.867393493652344 33 5.867393493652344 M 32.99999618530273 2.867393493652344 C 35.39138031005859 2.867393493652344 37.78276443481445 3.628829956054688 39.78990173339844 5.151702880859375 L 46.21310043334961 10.02518463134766 C 47.07976913452148 10.68275451660156 48.03736877441406 11.21094512939453 49.05590057373047 11.59320449829102 L 52.51506042480469 12.89144515991211 C 59.36182022094727 15.46106338500977 61.96677017211914 23.78380393981934 57.80680847167969 29.79843521118164 L 57.80680847167969 29.7984447479248 C 56.94055938720703 31.0509147644043 56.3380012512207 32.46644592285156 56.03577041625977 33.95900344848633 L 55.45964813232422 36.80419540405273 C 54.38805770874023 42.09632873535156 49.7340087890625 45.80907440185547 44.46079254150391 45.80907440185547 C 44.00138473510742 45.80907440185547 43.53788757324219 45.78095245361328 43.07102966308594 45.72321319580078 L 34.37873077392578 44.64822387695313 C 33.9208984375 44.59160614013672 33.46045303344727 44.56329345703125 33.00000381469727 44.56329345703125 C 32.53955459594727 44.56329345703125 32.07910537719727 44.59160614013672 31.62126922607422 44.64822387695313 L 22.92895889282227 45.72321319580078 C 22.46245956420898 45.78090667724609 21.99826431274414 45.80907440185547 21.53919982910156 45.80907440185547 C 16.26556015014648 45.80907440185547 11.61201095581055 42.0966796875 10.54034042358398 36.80419540405273 L 9.964218139648438 33.95901489257813 C 9.661991119384766 32.46644592285156 9.059440612792969 31.0509147644043 8.193180084228516 29.79843521118164 L 8.193180084228516 29.7984447479248 C 4.033218383789063 23.78380393981934 6.638179779052734 15.46106338500977 13.48493957519531 12.89144515991211 L 16.944091796875 11.59320449829102 C 17.96263122558594 11.21094512939453 18.92023086547852 10.68275451660156 19.78689956665039 10.02518463134766 L 26.21009826660156 5.151702880859375 C 28.21723175048828 3.628829956054688 30.60861206054688 2.867393493652344 32.99999618530273 2.867393493652344 Z" stroke="none" fill="#050505"/>
    </g>
    <path id="Path_5" data-name="Path 5" d="M1250.731,858.635s46.119-12.99,67.683,0,45.657,22.578,67.76,1.8" transform="translate(-40 34)" fill="none" stroke="#050505" stroke-linecap="round" stroke-width="3"/>
    <line id="Line_5" data-name="Line 5" x2="8" y2="19" transform="translate(1089.5 1013.5)" fill="none" stroke="#050505" stroke-linecap="round" stroke-width="3"/>
    <line id="Line_6" data-name="Line 6" x2="12" y2="33" transform="translate(829.5 912.5)" fill="none" stroke="#050505" stroke-linecap="round" stroke-width="3"/>
    <line id="Line_7" data-name="Line 7" y1="31" x2="27" transform="translate(1611.5 896.5)" fill="none" stroke="#050505" stroke-linecap="round" stroke-width="3"/>
    <line id="Line_8" data-name="Line 8" x2="27" y2="12" transform="translate(1255.5 456.5)" fill="none" stroke="#050505" stroke-linecap="round" stroke-width="3"/>
    <g id="Polygon_8" data-name="Polygon 8" transform="translate(143 639)" fill="none">
      <path d="M10.058,14.211a4.654,4.654,0,0,1,8.885,0h0a4.654,4.654,0,0,0,.845,1.564l.725.884a4.654,4.654,0,0,1-4.586,7.5l-.439-.1a4.654,4.654,0,0,0-1.976,0l-.439.1a4.654,4.654,0,0,1-4.586-7.5l.725-.884a4.654,4.654,0,0,0,.845-1.564Z" stroke="none"/>
      <path d="M 14.50000095367432 13.94512176513672 C 14.1343412399292 13.94512176513672 13.24851131439209 14.0582218170166 12.92103004455566 15.10582160949707 C 12.626220703125 16.0489330291748 12.15888023376465 16.9144115447998 11.5319709777832 17.67822265625 L 10.80649185180664 18.56213188171387 C 10.22739028930664 19.26770210266113 10.41594123840332 19.95455169677734 10.57987022399902 20.30117225646973 C 10.80233001708984 20.77156257629395 11.29999160766602 21.27420234680176 12.02956008911133 21.27420234680176 C 12.15939140319824 21.27420234680176 12.29629135131836 21.25876235961914 12.43647003173828 21.22831344604492 L 12.87502098083496 21.13304138183594 C 13.40795135498047 21.01726150512695 13.95467090606689 20.95855331420898 14.50000095367432 20.95855331420898 C 15.04533100128174 20.95855331420898 15.59205055236816 21.01726150512695 16.12494087219238 21.13303375244141 L 16.56355094909668 21.22832107543945 C 16.70370101928711 21.25876235961914 16.84060096740723 21.27420234680176 16.97043991088867 21.27420234680176 C 17.69981002807617 21.27420234680176 18.19744110107422 20.77150344848633 18.41993141174316 20.3010425567627 C 18.58388137817383 19.95439147949219 18.7724609375 19.26752281188965 18.19351196289063 18.56213188171387 L 17.46804046630859 17.67822265625 C 16.84115219116211 16.91445159912109 16.37380218505859 16.04899215698242 16.07897186279297 15.10586166381836 C 15.75148105621338 14.0582218170166 14.86565113067627 13.94512176513672 14.50000095367432 13.94512176513672 M 14.5 10.94511985778809 C 16.38088226318359 10.94511985778809 18.26176452636719 12.03366661071777 18.94233131408691 14.21076202392578 L 18.94234085083008 14.21077156066895 C 19.12077140808105 14.78157234191895 19.40754127502441 15.31264305114746 19.78696060180664 15.77491188049316 L 20.512451171875 16.65884208679199 C 23.07931518554688 19.78628540039063 20.70683288574219 24.27420616149902 16.97043609619141 24.27420616149902 C 16.63275527954102 24.27420616149902 16.28398513793945 24.23755836486816 15.92666053771973 24.15993118286133 L 15.48807048797607 24.06465148925781 C 15.16251087188721 23.99392318725586 14.83125591278076 23.95855712890625 14.50000095367432 23.95855712890625 C 14.16874599456787 23.95855712890625 13.83749103546143 23.99392318725586 13.51193141937256 24.06465148925781 L 13.07333087921143 24.15993118286133 C 12.71627044677734 24.23750114440918 12.36700630187988 24.27420616149902 12.02955627441406 24.27420616149902 C 8.29273796081543 24.27420616149902 5.920515060424805 19.78649139404297 8.487550735473633 16.65884208679199 L 9.213041305541992 15.77492332458496 C 9.592460632324219 15.31264305114746 9.879230499267578 14.78157234191895 10.05766105651855 14.21076202392578 C 10.73823165893555 12.03366661071777 12.61911582946777 10.94511985778809 14.5 10.94511985778809 Z" stroke="none" fill="#050505"/>
    </g>
    <path id="Path_6" data-name="Path 6" d="M1250.731,868.964s15.584,15.038,22.871,0,15.428-26.138,22.9-2.087" transform="translate(-1131 -602.362)" fill="none" stroke="#050505" stroke-linecap="round" stroke-width="3"/>
    <line id="Line_9" data-name="Line 9" x2="6" y2="6" transform="translate(205.5 267.5)" fill="none" stroke="#050505" stroke-linecap="round" stroke-width="3"/>
    <g id="Polygon_9" data-name="Polygon 9" transform="translate(477 328)" fill="none">
      <path d="M16.175,17.763a5,5,0,0,1,9.65,0l1.765,6.5a5,5,0,0,0,.754,1.593l5.779,8.1A5,5,0,0,1,28.84,41.71l-6.627-1.657a5,5,0,0,0-2.425,0L13.16,41.71a5,5,0,0,1-5.283-7.754l5.779-8.1a5,5,0,0,0,.754-1.593Z" stroke="none"/>
      <path d="M 21 17.07361221313477 C 20.54022026062012 17.07361221313477 19.43173980712891 17.21741485595703 19.0699405670166 18.54932403564453 L 17.30474090576172 25.0476131439209 C 17.05561065673828 25.9647331237793 16.64949035644531 26.82205390930176 16.09769058227539 27.59573364257813 L 10.31913948059082 35.69794464111328 C 9.702121734619141 36.56307220458984 9.953010559082031 37.35821533203125 10.15748023986816 37.75519561767578 C 10.43486976623535 38.29374313354492 11.03640937805176 38.86920166015625 11.89279937744141 38.86920166015625 C 12.06603050231934 38.86920166015625 12.24761962890625 38.84576416015625 12.4325008392334 38.79954528808594 L 19.0596809387207 37.14274597167969 C 19.69366073608398 36.98424530029297 20.34647941589355 36.90387344360352 21 36.90387344360352 C 21.65352058410645 36.90387344360352 22.30633926391602 36.98424530029297 22.9402904510498 37.14273452758789 L 29.56748008728027 38.79954528808594 C 29.75238037109375 38.84576416015625 29.9339714050293 38.86920166015625 30.10720062255859 38.86920166015625 C 30.96339988708496 38.86920166015625 31.56489944458008 38.29367446899414 31.84231948852539 37.75505447387695 C 32.04681015014648 37.35805511474609 32.29775238037109 36.56288146972656 31.68087005615234 35.69794464111328 L 25.90229988098145 27.59572410583496 C 25.35049057006836 26.82202339172363 24.94438934326172 25.96471405029297 24.69525909423828 25.04760360717773 L 22.9300594329834 18.54933547973633 C 22.56826019287109 17.21741485595703 21.45977973937988 17.07361221313477 21 17.07361221313477 M 21 14.07361602783203 C 23.07851982116699 14.07361602783203 25.15703964233398 15.30337905883789 25.82514953613281 17.76290512084961 L 27.59035110473633 24.26118469238281 C 27.74555015563965 24.83252334594727 28.00098037719727 25.37175369262695 28.34474945068359 25.85376358032227 L 34.12331008911133 33.95597457885742 C 36.56250762939453 37.37601470947266 33.9594612121582 41.86919784545898 30.10720443725586 41.86919784545898 C 29.69721221923828 41.86919784545898 29.27362251281738 41.81840515136719 28.83988952636719 41.7099723815918 L 22.21268081665039 40.05316162109375 C 21.8145809173584 39.95363998413086 21.40728950500488 39.90387725830078 21 39.90387725830078 C 20.59271049499512 39.90387725830078 20.1854190826416 39.95363998413086 19.78731918334961 40.05316162109375 L 13.16011047363281 41.7099723815918 C 12.72665214538574 41.81833648681641 12.30254554748535 41.86919784545898 11.89279556274414 41.86919784545898 C 8.040111541748047 41.86919784545898 5.437328338623047 37.37624359130859 7.876689910888672 33.95597457885742 L 13.65523910522461 25.85376358032227 C 13.99901962280273 25.37175369262695 14.25444984436035 24.83252334594727 14.4096508026123 24.26118469238281 L 16.17485046386719 17.76290512084961 C 16.84296035766602 15.30337905883789 18.92148017883301 14.07361602783203 21 14.07361602783203 Z" stroke="none" fill="#050505"/>
    </g>
    <path id="Path_7" data-name="Path 7" d="M1250.731,854.74s10.091-4.225,14.809,0,9.99,7.343,14.826.586" transform="matrix(0.766, -0.643, 0.643, 0.766, 325.084, 726.299)" fill="none" stroke="#050505" stroke-linecap="round" stroke-width="3"/>
    <g id="Polygon_10" data-name="Polygon 10" transform="translate(212 770)" fill="none">
      <path d="M9.91,23.927a4.673,4.673,0,0,1,9.18,0h0a4.673,4.673,0,0,0,.416,1.222l4.262,8.461a4.673,4.673,0,0,1-5.734,6.508l-1.974-.7a4.673,4.673,0,0,0-3.119,0l-1.974.7A4.673,4.673,0,0,1,5.233,33.61l4.262-8.461a4.673,4.673,0,0,0,.416-1.222Z" stroke="none"/>
      <path d="M 14.50000095367432 23.13378524780273 C 14.08419132232666 23.13378524780273 13.09167098999023 23.2661247253418 12.85653114318848 24.4919548034668 C 12.72281074523926 25.1890754699707 12.49311065673828 25.8640022277832 12.17379188537598 26.49801254272461 L 7.912281036376953 34.95935440063477 C 7.563791275024414 35.65130615234375 7.74945068359375 36.21669387817383 7.966581344604492 36.56915283203125 C 8.21333122253418 36.96970367431641 8.712150573730469 37.39771270751953 9.372161865234375 37.39771270751953 C 9.5631103515625 37.39771270751953 9.762680053710938 37.36133575439453 9.965341567993164 37.28959655761719 L 11.93916130065918 36.59081268310547 C 12.76371002197266 36.29890441894531 13.62530136108398 36.15089416503906 14.50000095367432 36.15089416503906 C 15.37470054626465 36.15089416503906 16.23628997802734 36.29890441894531 17.06082153320313 36.59081268310547 L 19.03468132019043 37.28959655761719 C 19.23731994628906 37.36133575439453 19.4368896484375 37.39771270751953 19.62784194946289 37.39771270751953 C 20.28768157958984 37.39771270751953 20.78647994995117 36.96964263916016 21.03326034545898 36.56904602050781 C 21.25041198730469 36.21653366088867 21.43613052368164 35.6511344909668 21.08772087097168 34.95935440063477 L 16.82620048522949 26.49800491333008 C 16.50691223144531 25.8640251159668 16.27720069885254 25.18911361694336 16.14347076416016 24.49196243286133 C 15.90832138061523 23.2661247253418 14.91581058502197 23.13378524780273 14.50000095367432 23.13378524780273 M 14.5 20.13378143310547 C 16.55234527587891 20.13378143310547 18.60469055175781 21.39811706542969 19.08975219726563 23.92679214477539 L 19.08975219726563 23.92680358886719 C 19.17119216918945 24.35132217407227 19.31113052368164 24.76249313354492 19.50557136535645 25.14856338500977 L 23.76708030700684 33.60990142822266 C 25.40314102172852 36.85835647583008 22.89849472045898 40.39772033691406 19.62784194946289 40.39772033691406 C 19.11093521118164 40.39772033691406 18.57536888122559 40.30944061279297 18.03349113464355 40.11760330200195 L 16.05965042114258 39.4188232421875 C 15.55511093139648 39.24020385742188 15.02755641937256 39.15089416503906 14.50000095367432 39.15089416503906 C 13.97244548797607 39.15089416503906 13.44489097595215 39.24020385742188 12.94035148620605 39.4188232421875 L 10.96651077270508 40.11760330200195 C 10.42487525939941 40.30935668945313 9.888851165771484 40.39772033691406 9.372159957885742 40.39772033691406 C 6.101165771484375 40.39772033691406 3.596735000610352 36.85858917236328 5.232921600341797 33.60990142822266 L 9.494430541992188 25.14856338500977 C 9.688871383666992 24.76249313354492 9.828811645507813 24.35132217407227 9.910240173339844 23.92680358886719 L 9.910240173339844 23.92679214477539 C 10.39530563354492 21.39811706542969 12.44765281677246 20.13378143310547 14.5 20.13378143310547 Z" stroke="none" fill="#050505"/>
    </g>
    <path id="Path_8" data-name="Path 8" d="M1250.731,854.74s10.091-4.225,14.809,0,9.99,7.343,14.826.586" transform="translate(-1357.389 739.152) rotate(-45)" fill="none" stroke="#050505" stroke-linecap="round" stroke-width="3"/>
    <path id="Path_9" data-name="Path 9" d="M1250.731,854.74s10.091-4.225,14.809,0,9.99,7.343,14.826.586" transform="translate(685.257 -904.132) rotate(16)" fill="none" stroke="#050505" stroke-linecap="round" stroke-width="3"/>
    <path id="Path_10" data-name="Path 10" d="M1250.731,854.74s10.091-4.225,14.809,0,9.99,7.343,14.826.586" transform="matrix(0.469, 0.883, -0.883, 0.469, 552.537, -1257.709)" fill="none" stroke="#050505" stroke-linecap="round" stroke-width="3"/>
    <path id="Path_11" data-name="Path 11" d="M1250.731,859.982s11.893-16.019,17.453,0,11.774,27.844,17.473,2.224" transform="translate(762.275 -771.754) rotate(11)" fill="none" stroke="#050505" stroke-linecap="round" stroke-width="3"/>
  </g>
</svg>
