<?xml version="1.0" encoding="utf-8"?>
<!-- Generator: Adobe Illustrator 24.1.1, SVG Export Plug-In . SVG Version: 6.00 Build 0)  -->
<svg version="1.1" id="logo" xmlns="http://www.w3.org/2000/svg" xmlns:xlink="http://www.w3.org/1999/xlink" x="0px" y="0px"
	 viewBox="0 0 191 52" style="enable-background:new 0 0 191 52;" xml:space="preserve">
<style type="text/css">
	.st0{fill:none;}
	.st1{fill:url(#logo-2_1_);}
	.st2{enable-background:new    ;}
	.st3{fill:#FFFFFF;}
</style>
<pattern  y="52" width="1916" height="3888" patternUnits="userSpaceOnUse" id="pattern" viewBox="0 -3888 1916 3888" style="overflow:visible;">
	<g>
		<rect y="-3888" class="st0" width="1916" height="3888"/>
		
			<image style="overflow:visible;enable-background:new    ;" width="1916" height="3888" xlink:href="ADFDFF70.png"  transform="matrix(1 0 0 -1 0 0)">
		</image>
	</g>
</pattern>
<pattern  id="logo-2_1_" xlink:href="#pattern" patternTransform="matrix(1.304802e-02 0 0 -1.286008e-02 -7686.3633 -11087.6709)">
</pattern>
<rect id="logo-2" class="st1" width="25" height="50"/>
<g class="st2">
	<path class="st3" d="M65.4,51.9c0-0.1,0.1-0.2,0.1-0.4c-0.1,0-0.1-0.1-0.2-0.1c0-0.2,0-0.5,0.1-0.7c0.2-0.6,0.4-1.1,0.7-1.7
		c0.5-1.1,1-2.2,1.4-3.3c0.4-1.2,0.8-2.4,1.2-3.6c0.1-0.3,0.3-0.4,0.4-0.7l0.8-3.3c0-0.1,0-0.1,0-0.2L69.6,38
		c0.2-1.4,0.3-2.9,0.3-4.3c-0.1-1.5-0.6-2.8-0.9-4.2c0.8,0.7,1.2,1.6,1.3,2.7c0.1,0.9,0.1,1.9,0.1,2.8c0,0.3-0.1,0.6-0.1,0.8
		c0,0.1-0.1,0.2,0,0.3c0.1,0.9-0.1,1.7-0.2,2.6c-0.1,0.6-0.2,1.2-0.2,1.9c0.2-1.1,0.6-2.1,0.6-3.2c0.1-0.9,0.2-1.9,0.2-2.8
		c0-0.6-0.2-1.3-0.2-1.9c0-0.6-0.1-1.2-0.3-1.8c-0.2-0.5-0.4-1-0.7-1.4c0,0.2,0.1,0.4,0.1,0.7c-0.4-1.4-1.2-2.6-2.4-3.5
		c-0.6-0.5-1.2-0.9-1.9-1c0.5,0.4,1.1,0.7,1.6,1.2c0.5,0.4,0.9,1,1.3,1.5c-0.3-0.3-0.6-0.6-1-0.9c-0.4-0.3-0.7-0.6-1.1-0.8
		c-0.4-0.2-0.8-0.5-1.2-0.7c-0.1,0.2-0.2,0.3-0.2,0.4c-0.7,1.7-1.3,3.4-1.8,5.2c-0.2,0.6-0.4,1.1-0.6,1.7c-0.1,0.3-0.2,0.4-0.7,0.3
		l-0.3-0.5c-0.1,0.1-0.2,0.2-0.3,0.2c0,0,0,0,0,0c0,0,0,0,0,0c0.1-1.5,0.7-2.8,1.2-4.2c0.3-1,0.7-2,1.1-3c0.1-0.2,0.1-0.3,0.2-0.5
		c-0.4-0.1-0.7-0.2-1-0.3c-1.2-0.2-2.4-0.4-3.7-0.6c-0.6-0.1-1.2,0-1.8,0c-1.2,0-2.5-0.1-3.7-0.2c-0.4,0-0.9,0-1.3-0.1
		c-0.3-0.1-0.5-0.2-0.9-0.3c0.3-0.3-0.1-0.5,0-0.8c0.1-0.2,0.1-0.5,0.2-0.8c0.4-0.1,0.8-0.3,1.2-0.3c1.3-0.2,2.6-0.3,4-0.5
		c1.7-0.2,3.4-0.3,5.2-0.5c1.2-0.1,2.5-0.3,3.7-0.4c0.1-0.2,0.2-0.4,0.3-0.5c0.6-1.4,1.3-2.8,1.9-4.2c0.3-0.6,0.6-1.1,0.9-1.7
		c0.1-0.2,0.3-0.4,0.4-0.5c0.3,0.2,0.6,0.3,0.9,0.5c0.1,0.2,0.1,0.3,0.2,0.5c0,0.1-0.1,0.3-0.2,0.4c-0.9,1.1-1.4,2.5-2,3.7
		c-0.2,0.5-0.5,1.1-0.7,1.6c0.1,0,0.3,0.1,0.4,0.1c0.5,0,1-0.1,1.5-0.2c1.1-0.2,2.2-0.4,3.4-0.6c0.2,0,0.4-0.1,0.6,0.1
		c0,0.1,0.2,0,0.3,0c1-0.1,2-0.1,3-0.3c0.7-0.2,1.5-0.2,2.2-0.4c0.1,0,0.3-0.1,0.4-0.1c0.2-0.5,0.4-0.9,0.6-1.4
		c0.2-0.5,0.4-0.9,0.7-1.4c0.2-0.4,0.5-0.7,0.5-1.2c0-0.2,0.1-0.4,0.2-0.6c0.9-2.2,1.8-4.4,2.7-6.6c0.2-0.6,0.5-1.2,0.7-1.7
		c0.2-0.5,0.4-1,0.5-1.6c0.1-0.8,0.6-1.5,1-2.3l1,0.5C86.4,3.7,86,4.7,86,5.8c0,0-0.1,0-0.3,0.1l-0.8,2c0-0.9,0.3-1.8,0.6-2.7
		c-0.5,0.2-0.6,0.6-0.7,0.9c-0.3,0.6-0.7,1.1-0.7,1.8c0,0.5-0.3,1-0.5,1.5c-0.1,0.3-0.2,0.6-0.2,1c0,0.1,0,0.1,0,0.3
		c0.1-0.2,0.2-0.3,0.3-0.6c-0.7,3-2,5.6-3.1,8.4c0.8-0.1,1.5-0.1,2.2-0.2l4.3-0.4c1.4-0.1,2.8-0.2,4.2-0.3c0.2,0,0.5,0,0.7,0
		c0.7,0.1,1.3,0,2,0c0.4,0,0.6-0.3,1-0.3c0.6,0,1.3-0.1,1.9-0.1c2.3-0.1,4.7-0.3,7-0.2c0.4,0,0.9,0.1,1.3,0.2c0.3,0,0.5,0.1,0.7,0.4
		c0,0.1,0.2,0.2,0.3,0.2c0.5,0,0.6,0.4,0.8,0.8c0,0.1,0.1,0.2,0.1,0.3c-0.1,0.3-0.1,0.7-0.3,1c-0.1-0.2-0.2-0.3-0.3-0.4l-1,0.1
		c-0.1-0.9-0.8-0.7-1.3-0.8c-0.5-0.1-0.9,0-1.4,0h-1.6L98,18.5c-0.7,0-1.3,0-2,0.1c-0.7,0.1-1.5,0.1-2.2,0.3
		c-1.1,0.3-2.1,0.3-3.2,0.4c-3,0.3-6,0.6-9,0.9c-0.4,0-0.9,0-1.3,0l-0.4,0.1c-0.2,0.4-0.4,0.8-0.6,1.2C79,21.6,79,21.9,78.9,22
		c0.1,0.1,0.1,0.1,0.2,0.2c-0.3,0.7-0.5,1.5-0.8,2.2c-2,5-4,10-6.1,14.9c-0.3,0.7-0.7,1.5-1.1,2.2c0.1-0.5,0.3-1.1,0.5-1.6
		c0,0-0.1,0-0.1,0c-0.3,0.7-0.6,1.3-0.8,2c-0.2,0.5-0.2,1-0.4,1.5c-0.3,1.3-0.7,2.6-1.3,3.8c-0.4,0.9-0.8,1.9-1.4,2.7
		c-0.2,0.4-0.5,0.7-0.5,1.2c-0.1,0.4-0.4,0.7-0.7,0.9L65.4,51.9z M62.6,24.1c-0.1,0-0.2-0.1-0.3-0.1c0.2,0,0.5,0.1,0.7,0.1
		c0.2,0,0.4,0.3,0.7,0c-1.3-0.4-2.6-0.6-4-0.7c-0.6-0.1-1.3-0.2-1.9-0.2c-0.5,0-1,0-1.4,0v0.2c0.2,0,0.4,0,0.5,0
		c0.9,0.1,1.7,0.2,2.6,0.3c0.8,0.1,1.5,0.2,2.2,0.4l0.6,0.2C62.4,24.2,62.5,24.2,62.6,24.1z M59.4,22.1c0.7-0.1,1.5-0.2,2.2-0.2
		c0.8,0,1.6,0,2.4,0c0.2,0,0.5-0.1,0.7-0.1l0.1-0.4c-0.1,0-0.1-0.1-0.2-0.1c-0.5,0.1-1,0.2-1.5,0.2c-0.8,0.1-1.6,0.2-2.4,0.2
		c-0.8,0.1-1.6,0.1-2.4,0.1c-0.3,0-0.7,0.1-1,0.3c0.2,0.1,0.5,0.1,0.7,0.1C58.5,22.2,58.9,22.1,59.4,22.1z M64.4,22.3
		c-0.4-0.1-0.8,0-1.2,0.1c-0.4,0.1-0.8,0.2-1.3,0.2c-0.9,0.1-1.8,0.2-2.8,0.3c0.9,0.1,1.7,0.3,2.4,0.4c0.8,0.1,1.5,0.3,2.3,0.5
		C64.2,23.2,64.4,22.7,64.4,22.3z M64.1,25.5c-0.2,0.2-0.2,0.2-0.2,0.5C64,25.8,64.1,25.6,64.1,25.5z M65.2,22.7l-0.1-0.1
		c-0.2,0.4-0.4,0.8-0.6,1.2c0,0,0.1,0.1,0.1,0.2C64.9,23.6,65.1,23.1,65.2,22.7z M72,36.4c0.1-0.6,0.3-1.2,0.5-1.8
		c0.2-0.6,0.5-1.2,0.8-1.9c0.2-0.5,0.5-1,0.7-1.5c0.2-0.5,0.6-1,0.6-1.6c0-0.1,0.1-0.1,0.1-0.2c0.1-0.2,0.2-0.4,0.3-0.6
		c0.2-0.5,0.4-0.9,0.6-1.4c0.3-0.7,0.5-1.5,0.8-2.2c0.1-0.3,0.2-0.7,0.3-1c0.5-1.1,0.9-2.2,1.4-3.4c-0.2,0-0.3-0.1-0.4-0.1
		c-0.5,0-1,0.1-1.5,0.2c-1,0.2-2,0.4-3,0.3c-0.5,0-1,0-1.5,0.1c-0.4,0.1-0.8,0.2-1.3,0.3c-0.7,0.1-1.5,0.2-2.2,0.3
		c-0.6,0.1-1.3,0.1-1.9,0.2l-0.9,2.3c0.2,0.1,0.4,0.2,0.5,0.3c0.7,0.2,1.3,0.6,1.8,1c0.3,0.2,0.5,0.6,0.8,0.8c0.4,0.4,0.6,0.9,1,1.2
		c0.2,0.2,0.5,0.4,0.6,0.7c0.3,0.5,0.6,1.1,0.8,1.7c0.4,1.1,0.7,2.3,0.7,3.6c0,1,0,2.1,0,3.1c0,0.6-0.2,1.2-0.3,1.7
		c0-0.1,0-0.2-0.1-0.3c-0.1,0.3,0,0.5,0,0.8c0,0.2-0.1,0.5-0.2,0.7C71.4,38.7,71.7,37.5,72,36.4z M77,26.3c0.1-0.3,0.2-0.6,0.2-0.8
		c0.2-0.2,0.4-0.4,0.2-0.7c-0.1,0.2-0.2,0.5-0.3,0.7c-0.4,0.6-0.7,1.3-0.9,2.1l-0.1,0.6C76.6,27.5,76.8,26.9,77,26.3z"/>
	<path class="st3" d="M83.8,28.8c-0.2,0.2-0.3,0.5-0.5,0.8c0.5-0.3,0.9-0.5,1.2-0.8c1.3-1,2.6-2,3.9-2.9l1-0.8
		c0.1-0.1,0.3-0.1,0.4-0.2l0.3,0.7c0.3-0.1,0.5-0.3,0.8-0.1c0.4,0.5,0.2,1,0,1.5c-0.1,0.3-0.3,0.6-0.4,0.9l-1.7,3.4
		c-0.1,0.1-0.1,0.2-0.2,0.4c-0.2-0.2,0-0.4,0-0.6c0.1-0.2,0.2-0.5,0.3-0.7c0.3-0.4,0.5-0.7,0.6-1.2c-0.3,0.3-0.6,0.7-0.6,1.2
		c-0.3,0.1-0.3,0.4-0.5,0.6c-0.1,0.3-0.3,0.6-0.5,1l-0.3-0.4c-0.1,0-0.1,0.1-0.3,0.1c-0.1-0.1-0.2-0.2-0.3-0.2
		c0.1-0.4,0.3-0.7,0.2-1.1c0-0.1,0.1-0.2,0.1-0.3l0.9-1.8c0-0.1,0.1-0.2,0.2-0.4L86.9,29c-0.1,0-0.1,0-0.2,0c-0.2-0.1-0.2,0-0.4,0.2
		c0.1,0,0.2,0,0.3,0c0.2,0.1,0.3,0,0.3-0.1c0.2-0.1,0.4-0.1,0.6-0.2c-0.9,0.8-1.8,1.4-2.7,1.9c-0.5,0.3-1,0.5-1.5,0.8
		c-0.6,0.3-1.2,0.2-1.8,0c-0.3-0.1-0.4-0.4-0.4-0.7c0-0.7,0.2-1.3,0.6-1.9c0.4-0.6,0.9-1.3,1.4-1.8c1.1-1.2,2.2-2.3,3.6-3.2
		c0.5-0.3,1-0.5,1.6-0.7c0.2-0.1,0.4-0.2,0.7-0.3s0.5-0.3,0.7-0.3c0.4-0.1,0.7,0.2,1,0.5c-0.1,0-0.2-0.1-0.3-0.1
		c0,0.1-0.1,0.2-0.1,0.3c0.2,0,0.4,0.1,0.5,0.1c0.4,0.4,0.5,0.8,0.3,1.4c-0.4,0.2-0.5,0.2-0.7-0.2c-0.1,0-0.2,0.1-0.3,0.1
		c-0.1-0.1-0.1-0.1-0.2-0.2c0-0.1-0.1-0.1-0.1-0.2c-0.3,0.1-0.5,0.2-0.7,0.3c-0.8,0.5-1.5,1-2.3,1.5c-0.4,0.3-0.8,0.6-1.2,0.9
		C84.9,27.4,84.4,28.1,83.8,28.8z M83,30.6c-0.1,0-0.2,0.1-0.4,0.1C83,30.8,83.1,30.8,83,30.6z M83.4,30.3c0.1,0,0.2,0.1,0.3,0.1
		c0-0.1,0.1-0.2,0.2-0.3L83.4,30.3z M86.1,29.3C86.1,29.4,86.1,29.4,86.1,29.3l0.2-0.1L86.1,29.3z"/>
	<path class="st3" d="M99.8,24.7c0,0.5-0.4,1-0.9,1.1c-0.1-0.1-0.2-0.2-0.3-0.4c0,0-0.1,0-0.1,0c-0.2,0-0.4,0.2-0.6,0
		c0,0-0.2,0-0.2,0.1c-0.3,0.1-0.6,0.3-0.8,0.4c-0.6,0.3-1.2,0.8-1.7,1.3v0c-0.2,0.3-0.3,0.5-0.6,0.8c-0.3,0.4-0.6,0.7-0.9,1
		c-0.2,0.2-0.4,0.5-0.5,0.8c-0.2,0.5-0.6,1-0.9,1.5l-0.7-0.4c-0.1-0.3-0.2-0.6-0.3-1c0.8-2.3,2.1-4.4,2.8-6.8l0.6,0.3
		c0,0.1,0,0.3,0,0.4c0.2,0,0.4,0.1,0.6,0.1c-0.1,0.4-0.2,0.8-0.3,1.3c0.1-0.1,0.3-0.2,0.4-0.3c0.7-0.6,1.6-1.1,2.5-1.2
		c0.2-0.1,0.5-0.1,0.7-0.1c0.1,0,0.2,0.1,0.3,0.2c0.1,0.1,0.2,0.3,0.4,0.5c0.1,0.1,0.2,0,0.3,0.1C99.7,24.4,99.8,24.5,99.8,24.7z
		 M95.2,27.2c0-0.1,0-0.1-0.1-0.2c-0.5,0.3-0.9,0.8-1.3,1.2c-0.1,0.1-0.1,0.2-0.1,0.5c0.5-0.5,0.8-0.9,1.2-1.3
		C95,27.3,95.1,27.2,95.2,27.2z M98.8,24c-0.3-0.2-0.5-0.1-0.7-0.1c-0.8,0.2-1.6,0.5-2.4,1.1C96.8,24.6,97.8,24.3,98.8,24z"/>
	<path class="st3" d="M100.2,31c-0.2-0.6-0.2-1.2-0.1-1.8c0.1-1.4,0.7-2.6,1.4-3.8c0.1-0.3,0.2-0.5,0.4-0.8c0.1-0.3,0.3-0.6,0.6-0.8
		c0.1,0.1,0.4,0.2,0.5,0.2c-0.2,0.2-0.4,0.3-0.7,0.5l0.2,0.1c0.1-0.1,0.2-0.2,0.2-0.2c0.1-0.1,0.3,0,0.3-0.1
		c0.1-0.1,0.2-0.2,0.3-0.1c0.1,0.4,0.1,0.5-0.1,0.7c-0.1,0.1-0.2,0.2-0.3,0.3c-0.1,0.2-0.3,0.5-0.4,0.7l-0.1-0.2
		c-0.3,0.6-0.6,1.1-0.8,1.6c-0.1,0.2,0,0.4,0,0.6c0,0.1,0,0.2,0,0.2c-0.2,0.4-0.2,0.7-0.2,1.1c-0.1,0.5,0,1,0.1,1.4
		c0,0.1,0,0.1,0.1,0.2c0.3,0,0.5-0.1,0.6-0.3c-0.1,0-0.1,0-0.1,0l0.6-0.5c0.1,0.1-0.2,0.2-0.2,0.4c0.2,0.1,0.5,0.1,0.8,0
		c-0.1,0.2-0.2,0.3-0.3,0.4c-0.2,0.2-0.5,0.4-0.7,0.5c-0.1,0-0.1,0.1-0.1,0.1C101.3,32,100.5,31.8,100.2,31z M103.4,22.3
		c-0.1,0-0.2,0.1-0.2,0c-0.1,0-0.2-0.1-0.1-0.2c0-0.4,0.1-0.8,0.4-1c0.3,0,0.4,0.2,0.5,0.5c0.1-0.2,0.3-0.3,0.5-0.2
		c0,0.2,0.1,0.4,0.1,0.6c-0.1,0.3-0.4,0.4-0.6,0.6C103.7,22.7,103.5,22.6,103.4,22.3z"/>
	<path class="st3" d="M118.6,45c-1.7-0.5-3.3-1.3-4.5-2.7c-1.3-1.6-1.6-3.3-1.1-5.3c0.1-0.3,0.2-0.6,0.4-0.9
		c-0.1,0.4-0.2,0.8-0.2,1.2c0,0.4-0.2,0.8,0,1.2l0.2-1.1c0.1-0.4,0.1-0.8,0.3-1.1c0.4-1.3,1-2.6,1.8-3.8c0.2-0.2,0.3-0.4,0.5-0.6
		c0.9-1.1,1.9-2.1,3.1-3c1.9-1.5,3.9-2.9,6.1-4c2.4-1.2,4.8-2.5,7.3-3.5c0.3-0.1,0.5-0.3,0.7-0.6l2.1-4.1c0,0,0.1-0.1,0.2-0.2
		c0,0.4,0.1,0.6,0.1,0.9c0.3-0.1,0.2-0.5,0.3-0.9c0.2,0.1,0.4,0.2,0.6,0.3c0.3,0.4,0.2,0.8,0,1.1c-0.4,0.8-0.8,1.7-1.2,2.6
		c1-0.4,2-0.7,2.9-1c0.8-0.3,1.6-0.5,2.4-0.9c1-0.5,2-1,3-1.5c0.5-0.3,1.1-0.6,1.5-1.1c0.3-0.3,0.3-0.3,0.5-0.8
		c-0.3-0.2-0.7-0.3-1.1-0.3c-0.6-0.1-1.3-0.2-2-0.2c-2.4-0.1-4.9,0-7.3,0.2c-1.3,0.1-2.5,0.2-3.8,0.3c-1.4,0.1-2.8,0.3-4.2,0.5
		c-0.9,0.1-1.8,0.3-2.7,0.4c-0.7,0.1-1.5,0.1-2.2,0.2c-0.1,0-0.3,0-0.4,0.1c-1.4,0.4-2.9,0.8-4.3,1.3c-0.4,0.1-0.9,0.2-1.3,0.4
		l-0.1,0.8c-0.2-0.1-0.4-0.2-0.6-0.3c0.1,0.2,0.1,0.4,0.2,0.5c-0.3,0.1-0.5-0.1-0.6-0.4c0.1-0.2,0.2-0.5,0.3-0.8
		c-0.1,0.1-0.2,0.1-0.2,0.1c-0.1,0.2-0.2,0.4-0.3,0.5c-0.4-0.1-0.5-0.3-0.6-0.6c0.1-0.4,0.5-0.7,0.8-0.9l2-0.9c1-0.5,2-0.8,3.1-1
		c0.2,0,0.4-0.1,0.6-0.1c1.4-0.5,2.9-0.6,4.4-0.9c0.8-0.1,1.5-0.2,2.3-0.2c0.4,0,0.9,0.1,1.3,0.1c0.2,0,0.4,0,0.5-0.1
		c-0.2,0-0.3-0.1-0.5-0.1c0.2-0.2,0.5-0.2,0.8-0.3c1.5-0.1,2.9-0.2,4.4-0.4c2.3-0.2,4.7-0.3,7-0.3c1.3,0,2.6,0,3.8,0.3
		c0.4,0.1,0.8,0.2,1.1,0.4c0.4,0.2,0.6,0.5,0.6,0.9c0,0.3,0.2,0.5,0.4,0.7c-0.2,1.4-1.2,2.3-2.4,3c-0.3,0.2-0.6,0.4-0.9,0.6
		c0.2,0,0.3,0,0.4,0c0.5,0,1.1-0.1,1.6-0.1c1.5,0,3,0.1,4.4,0.1c2.3,0,4.5,0.3,6.6,0.8c0.9,0.2,1.8,0.6,2.6,1.1
		c1.8,1.1,2.8,3.5,1.7,5.8c-0.7,1.4-1.7,2.5-2.8,3.6c-1.7,1.7-3.7,3.2-5.7,4.5c-1,0.6-2,1.2-3.1,1.8c-0.5,0.3-1,0.7-1.5,1
		c-0.1,0.1-0.3,0.2-0.4,0.3c-4.9,2.7-10.1,4.9-15.5,6.4c-0.9,0.3-1.9,0.4-2.8,0.7c-1.1,0.3-2.2,0.5-3.3,0.6
		C123.3,45.6,120.9,45.7,118.6,45z M113.9,37.1c-0.1,0.6-0.1,1.2-0.2,1.7C113.9,38.3,114,37.7,113.9,37.1z M129.3,43.2
		c0.1-0.2,0.2-0.3,0.3-0.5c0.5-0.1,1-0.2,1.5-0.3c0.8-0.2,1.6-0.3,2.3-0.6c0.4-0.2,0.9-0.4,1.3-0.5c0.6-0.2,1.2-0.4,1.8-0.5
		c0.4-0.1,0.9-0.2,1.3-0.4c1.3-0.5,2.5-1,3.7-1.5c1.1-0.5,2.2-0.9,3.3-1.4c0.5-0.2,1.1-0.4,1.6-0.7c0.5-0.3,1-0.6,1.5-0.9
		c0.1,0,0.1-0.1,0.1-0.1c0-0.5,0.4-0.6,0.7-0.7c1.6-1,3.1-2,4.7-3c1.5-1,3-2.2,4.3-3.6c1-1.1,2-2.2,2.2-3.8c0.1-0.8-0.1-1.4-0.7-1.9
		c-0.5-0.3-1.1-0.6-1.7-0.8c-1-0.4-2.1-0.6-3-1.1c-0.1,0-0.2,0-0.3,0c0.1,0.1,0.1,0.1,0.2,0.2c-0.2,0-0.3,0-0.4,0
		c-1.2-0.1-2.4-0.2-3.5-0.4c-0.5-0.1-1.1,0-1.6-0.2c-0.2-0.1-0.6-0.1-0.9,0c-1.5,0.2-3,0.2-4.5,0.3c-0.4,0-0.8,0-1.2,0.1
		c-0.8,0.1-1.6,0.3-2.4,0.5l-2.5,0.4c0.1,0.2,0.2,0.4,0.3,0.5c-0.1,0.4-0.1,0.4-0.5,0.6l-0.5-0.3c0-0.1-0.1-0.3-0.1-0.5
		c-0.8-0.1-1.5,0.3-2.2,0.3c0,0,0,0.1,0.1,0.2c-0.5,0.2-0.5,0.2-0.8,0.7c-0.3,0.6-0.7,1.3-1,1.9c-0.4,0.8-0.8,1.7-1.2,2.5
		c-0.5,1-0.8,2.1-1.2,3.1c0,0.2,0.1,0.3,0.1,0.4c0.1,0.2,0,0.4-0.2,0.5c-0.2,0.1-0.4,0.1-0.5-0.1c-0.2-0.2-0.4-0.4-0.3-0.7
		c0.1-0.3,0.3-0.7,0.3-1c0.1-0.5,0.3-0.9,0.5-1.3c0.2-0.5,0.5-1,0.6-1.5c0.2-1,0.6-1.8,1-2.7c0.1-0.2,0.2-0.5,0.4-0.8
		c-0.4,0.2-0.7,0.3-1,0.4c-0.6,0.3-1.2,0.5-1.7,0.8c-2.5,1.3-5.1,2.5-7.4,4.1c-2.8,1.9-5.2,4.1-6.8,7.1c-0.4,0.8-0.7,1.5-0.8,2.4
		c0,0.3-0.1,0.6-0.1,0.9c0.1,0.3,0.1,0.5,0.2,0.7c0.1,0.3,0.1,0.6,0.3,0.9c0.2,0.3,0.4,0.7,0.7,0.9c0.4,0.2,0.7,0.4,1.1,0.6
		c0,0,0,0.1,0,0.1h-0.6c1.6,1.2,2.3,1.3,3.3,1.2c-0.2-0.1-0.4-0.2-0.5-0.3c0,0,0.1-0.1,0.1,0c0.1,0,0.1,0,0.2,0
		c2.3,0.5,4.5,0.6,6.8,0.3c0.4-0.1,0.8-0.2,1.2,0c0.4,0.2,0.7,0.1,1.1,0c0,0.1,0,0.1,0,0.3C128.4,43.6,128.9,43.4,129.3,43.2z
		 M142.5,20.2l-0.3-0.1l0.2-0.2c-0.6-0.1-1.1,0.1-1.6,0.2c-0.4,0.1-0.6,0.3-0.9,0.6L142.5,20.2z M149.2,35.6c-0.4,0-0.8,0.3-1.4,0.8
		C148.4,36.1,148.8,35.9,149.2,35.6z"/>
	<path class="st3" d="M162.6,28.8c-0.2,0.2-0.3,0.5-0.5,0.8c0.5-0.3,0.9-0.5,1.2-0.8c1.3-1,2.6-2,3.9-2.9l1-0.8
		c0.1-0.1,0.3-0.1,0.4-0.2l0.3,0.7c0.3-0.1,0.5-0.3,0.8-0.1c0.4,0.5,0.2,1,0,1.5c-0.1,0.3-0.3,0.6-0.4,0.9l-1.7,3.4
		c-0.1,0.1-0.1,0.2-0.2,0.4c-0.2-0.2,0-0.4,0-0.6c0.1-0.2,0.2-0.5,0.3-0.7c0.3-0.4,0.5-0.7,0.6-1.2c-0.3,0.3-0.6,0.7-0.6,1.2
		c-0.3,0.1-0.3,0.4-0.5,0.6c-0.1,0.3-0.3,0.6-0.5,1l-0.3-0.4c-0.1,0-0.1,0.1-0.3,0.1c-0.1-0.1-0.2-0.2-0.3-0.2
		c0.1-0.4,0.3-0.7,0.2-1.1c0-0.1,0.1-0.2,0.1-0.3l0.9-1.8c0-0.1,0.1-0.2,0.2-0.4l-1.7,1.2c-0.1,0-0.1,0-0.2,0
		c-0.2-0.1-0.2,0-0.4,0.2c0.1,0,0.2,0,0.3,0c0.2,0.1,0.3,0,0.3-0.1c0.2-0.1,0.4-0.1,0.6-0.2c-0.9,0.8-1.8,1.4-2.7,1.9
		c-0.5,0.3-1,0.5-1.5,0.8c-0.6,0.3-1.2,0.2-1.8,0c-0.3-0.1-0.4-0.4-0.4-0.7c0-0.7,0.2-1.3,0.6-1.9c0.4-0.6,0.9-1.3,1.4-1.8
		c1.1-1.2,2.2-2.3,3.6-3.2c0.5-0.3,1-0.5,1.6-0.7c0.2-0.1,0.4-0.2,0.7-0.3s0.5-0.3,0.7-0.3c0.4-0.1,0.7,0.2,1,0.5
		c-0.1,0-0.2-0.1-0.3-0.1c0,0.1-0.1,0.2-0.1,0.3c0.2,0,0.4,0.1,0.5,0.1c0.4,0.4,0.5,0.8,0.3,1.4c-0.4,0.2-0.5,0.2-0.7-0.2
		c-0.1,0-0.2,0.1-0.3,0.1c-0.1-0.1-0.1-0.1-0.2-0.2c0-0.1-0.1-0.1-0.1-0.2c-0.3,0.1-0.5,0.2-0.7,0.3c-0.8,0.5-1.5,1-2.3,1.5
		c-0.4,0.3-0.8,0.6-1.2,0.9C163.7,27.4,163.2,28.1,162.6,28.8z M161.9,30.6c-0.1,0-0.2,0.1-0.4,0.1C161.9,30.8,162,30.8,161.9,30.6z
		 M162.3,30.3c0.1,0,0.2,0.1,0.3,0.1c0-0.1,0.1-0.2,0.2-0.3L162.3,30.3z M165,29.3C165,29.4,165,29.4,165,29.3l0.2-0.1L165,29.3z"/>
	<path class="st3" d="M180.6,13.4c-0.1,0-0.2-0.1-0.4-0.1l-0.1,0.1c-0.5,0.9-1,1.8-1.5,2.7c-0.7,1.3-1.5,2.6-2.3,3.9
		c0,0.1-0.1,0.2-0.1,0.3v0c-0.1,0.1-0.2,0.2-0.3,0.4c-0.4,0.7-0.9,1.4-1.3,2.2c-0.1,0.2-0.2,0.4-0.3,0.7l-0.3,1
		c0.3,0,0.4-0.1,0.5-0.2c0.6-0.4,1.2-0.7,1.9-0.8c0.5,0,0.9,0,1.3,0.3c0.1,0.1,0.2,0.1,0.3,0.2c0.6,0.3,0.9,0.8,1,1.4
		c0.2,1-0.1,1.9-0.5,2.8c-0.8,1.7-1.9,3.1-3.6,3.9c-0.3,0.1-0.6,0.2-0.9,0.3s-0.6,0.1-1,0c-0.1,0-0.2,0-0.4,0
		c-0.3,0-0.5-0.1-0.7-0.2c-0.6-0.3-1.2-0.7-1.6-1.2c-0.6-0.7-0.3-1.7,0.1-2.2c0.1-0.1,0.3-0.2,0.5-0.3c0.1-0.1,0.3-0.1,0.4-0.1
		c-0.2-0.4-0.1-0.8,0.1-1.2c0.1-0.3,0.3-0.7,0.5-1c1.9-3.7,3.8-7.4,5.7-11c0.4-0.8,0.8-1.6,1.3-2.4c0.2-0.3,0.3-0.6,0.6-0.8
		c0.3,0.2,0.8,0.2,0.9,0.7l-0.5,0.1C180.3,12.8,180.8,12.9,180.6,13.4z M171.3,29.6C171.3,29.6,171.3,29.6,171.3,29.6l-0.4,0.1
		c0,0,0,0,0,0.1C171.1,29.7,171.2,29.7,171.3,29.6z M176.5,25.1c-1,0.5-2,1.1-2.7,1.9c-0.3,0.4-0.7,0.8-1,1.1
		c-0.1,0.1-0.2,0.2-0.3,0.2c0,0-0.1,0-0.1,0c0.1-0.3,0.2-0.5,0.1-0.9c-0.3,0.4-0.6,0.7-0.9,1.1c-0.1,0.1-0.1,0.2-0.3,0.2
		c-0.1,0-0.2,0.1-0.3,0.1h0.8v0.2c0.3,0,0.3-0.4,0.6-0.4c0.2,0.3,0.3,0.5,0.1,0.9c-0.3,0.1-0.7,0-0.9,0.4c0.2,0.5,0.6,0.8,1.1,1
		c0.1,0,0.2,0.1,0.3,0.1c0.3,0.2,0.7,0.3,1.1,0c0.1-0.1,0.2-0.1,0.3-0.1c0.4-0.1,0.8-0.4,1.1-0.7c0.4-0.5,0.9-1,1.3-1.5
		c0.4-0.4,0.8-0.9,1-1.4c0,0,0,0,0.1,0c0,0,0.1,0,0.1,0.1c-0.1-0.3,0.1-0.5,0.2-0.7l0.1,0.7c0.1-0.2,0.1-0.3,0.1-0.4
		c0.1-0.4,0.2-0.8,0.2-1.2c0.1-0.4-0.2-0.8-0.6-0.9C177.3,24.9,176.9,24.9,176.5,25.1z M171.3,29.8c-0.3,0.2-0.3,0.2-0.1,0.5
		L171.3,29.8z M172.2,27.2c0.2-0.2,0.4-0.3,0.5-0.7C172.4,26.7,172.3,26.9,172.2,27.2z M173.2,25.2L173.2,25.2
		c0.2-0.1,0.4-0.1,0.3-0.4L173.2,25.2z M173.8,25.5c-0.1,0.1-0.2,0.3-0.1,0.5c0.1-0.1,0.1-0.2,0.2-0.3c0.6-0.5,1.1-0.9,1.8-1.2
		c0.3-0.1,0.6-0.3,0.9-0.5c-0.2,0-0.4,0-0.6,0.1C175.1,24.4,174.5,25,173.8,25.5z M176,24.8c-0.2,0.1-0.4,0.2-0.6,0.3
		C175.8,25.1,175.8,25.1,176,24.8z M176.7,24.1c0.1,0,0.2,0,0.3,0c0,0,0-0.1,0-0.1L176.7,24.1z M177.6,24.5c0.1,0,0.3,0.1,0.4,0.1
		C177.8,24.5,177.8,24.5,177.6,24.5z M179.1,13.4c-0.1,0.2-0.3,0.3-0.2,0.6C179,13.8,179.1,13.7,179.1,13.4z"/>
	<path class="st3" d="M188.8,26c-0.4,0.8-0.7,1.5-1.1,2.3c0.3-0.3,0.6-0.7,0.9-1L189,27c0.2,0.2,0.1,0.3,0.1,0.5
		c-0.3,0.5-0.5,1-0.8,1.5c-0.3,0.5-0.6,1-0.8,1.5c-0.2,0.4-0.6,0.7-0.8,1.1l-0.3-0.3c0,0-0.1,0-0.2,0.1l-0.3-0.2
		c0.1-0.2,0.1-0.3,0.2-0.5c0.1-0.2,0.2-0.4,0.2-0.6c0-0.1,0.1-0.3,0.1-0.4c0.2-0.5,0.5-1.1,0.8-1.6c0.1-0.2,0.1-0.3,0.1-0.5
		c-0.1,0.1-0.2,0.2-0.3,0.3c-0.8,0.7-1.6,1.5-2.5,2.2c-0.6,0.5-1.2,0.9-1.9,1.2c-0.4,0.1-0.7,0.2-1.1-0.1c-0.1-0.1-0.2-0.1-0.3-0.1
		c-0.4-0.1-0.5-0.3-0.5-0.6c0-0.8,0.3-1.5,0.7-2.2c0.2-0.3,0.5-0.6,0.7-0.9c0.1-0.2,0.3-0.4,0.3-0.7c0-0.1,0-0.1,0.1-0.2
		c0.4-0.7,0.9-1.4,1.5-1.9c0.1,0,0.2,0,0.1-0.2c0.3-0.7,0.9-1.2,1.5-1.6c0.3-0.2,0.5-0.1,0.9,0.3c-0.5,0.2-1,0.1-1.4,0.6
		c0,0,0.1,0.1,0.2,0.1c0.4-0.1,0.8-0.3,1.2-0.4c0.1,0,0.2,0.1,0.4,0.2c0,0.2,0,0.3,0,0.4c-0.1,0-0.3,0-0.4,0l0.3,0.5
		c-0.2,0-0.4,0-0.6-0.1c-0.7,0.8-1.5,1.5-2.1,2.4c-0.6,0.9-1,1.9-1.6,2.9c0.6-0.2,1-0.5,1.5-0.8c-0.2,0-0.2,0-0.3,0c0,0,0-0.1,0-0.1
		c0.9-0.8,1.8-1.6,2.8-2.3c0.6-0.5,1.2-0.9,1.7-1.4c0.4-0.4,0.9-0.8,1.3-1.1c0.1-0.1,0.3-0.3,0.4-0.4l0,0c0.2,0,0.3,0,0.5,0
		c0.2,0.2,0.2,0.5,0.1,0.7c-0.3,0.7-0.6,1.4-0.9,2.1C189,26.1,188.9,26,188.8,26z M182,28.7c0,0,0.1,0,0.1,0.1
		c0.1-0.2,0.2-0.4,0.3-0.6l-0.1-0.1L182,28.7z M184.2,29.1c-0.4,0-0.9,0.4-1.2,0.9C183.4,29.8,183.8,29.5,184.2,29.1z M188,25.9
		c-0.1,0-0.2,0.1-0.3,0.1l-1.3,1.3c0.2,0,0.3-0.1,0.5-0.1C187.7,27,187.9,26.6,188,25.9z M187.6,28.6l0-0.2L187.6,28.6
		C187.6,28.6,187.6,28.6,187.6,28.6z M188.1,25.7C188.1,25.7,188.1,25.8,188.1,25.7l-0.1,0.2c0,0,0.1,0,0.1-0.1
		C188.2,25.8,188.1,25.8,188.1,25.7z"/>
</g>
</svg>
