<svg xmlns="http://www.w3.org/2000/svg" width="82.697" height="82.697" viewBox="0 0 82.697 82.697">
  <g id="vector_1_" data-name="vector (1)" transform="translate(-0.185 -0.185)">
    <path id="path" d="M41.534.185A41.349,41.349,0,1,1,.185,41.534,41.368,41.368,0,0,1,41.534.185Z" fill="#012617"/>
    <path id="path_1" d="M226.366,227.955c-.308-.363-4.572-32.137,34.447-25.722a65.112,65.112,0,0,0-3.911,15.794C255.552,229.727,234.958,238.09,226.366,227.955Z" transform="translate(-189.387 -168.673)" fill="#0b8455"/>
    <path id="path_2" d="M111.975,282.673c.209-.247,3.109-21.857-23.428-17.495a44.276,44.276,0,0,1,2.66,10.742C92.125,283.878,106.132,289.566,111.975,282.673Z" transform="translate(-74.08 -221.673)" fill="#0b8455"/>
    <path id="path_3" d="M220.833,251.5s6.945-20.978,29.375-24.775c0,0-23.363,10.121-26.186,29.461Z" transform="translate(-184.984 -189.92)" fill="#054c31"/>
    <path id="path_4" d="M136.939,299.842s-4.724-14.268-19.979-16.85c0,0,15.856,7.212,17.775,20.366h2.2l-.577-2.594Z" transform="translate(-97.9 -237.096)" fill="#054c31"/>
  </g>
</svg>
